<?xml version="1.0" standalone="yes"?>

<svg version="1.1" viewBox="0.0 0.0 960.0 540.0" fill="none" stroke="none" stroke-linecap="square" stroke-miterlimit="10" xmlns="http://www.w3.org/2000/svg" xmlns:xlink="http://www.w3.org/1999/xlink"><clipPath id="g31e41b2747_4_65.0"><path d="m0 0l960.0 0l0 540.0l-960.0 0l0 -540.0z" clip-rule="nonzero"></path></clipPath><g clip-path="url(#g31e41b2747_4_65.0)"><path fill="#ffffff" d="m0 0l960.0 0l0 540.0l-960.0 0z" fill-rule="evenodd"></path><path fill="#cfe2f3" d="m376.6929 152.12862l165.79526 0l0 318.2992l-165.79526 0z" fill-rule="evenodd"></path><path fill="#000000" d="m420.8835 176.48862l0 -11.453125l7.734375 0l0 1.34375l-6.21875 0l0 3.546875l5.375 0l0 1.359375l-5.375 0l0 5.203125l-1.515625 0zm9.4921875 0l0 -11.453125l1.40625 0l0 11.453125l-1.40625 0zm3.0546875 -4.15625q0 -2.296875 1.28125 -3.40625q1.078125 -0.921875 2.609375 -0.921875q1.71875 0 2.796875 1.125q1.09375 1.109375 1.09375 3.09375q0 1.59375 -0.484375 2.515625q-0.484375 0.921875 -1.40625 1.4375q-0.90625 0.5 -2.0 0.5q-1.734375 0 -2.8125 -1.109375q-1.078125 -1.125 -1.078125 -3.234375zm1.453125 0q0 1.59375 0.6875 2.390625q0.703125 0.796875 1.75 0.796875q1.046875 0 1.734375 -0.796875q0.703125 -0.796875 0.703125 -2.4375q0 -1.53125 -0.703125 -2.328125q-0.6875 -0.796875 -1.734375 -0.796875q-1.046875 0 -1.75 0.796875q-0.6875 0.78125 -0.6875 2.375zm9.5078125 4.15625l-2.546875 -8.296875l1.453125 0l1.328125 4.78125l0.484375 1.78125q0.03125 -0.125 0.4375 -1.703125l1.3125 -4.859375l1.453125 0l1.234375 4.8125l0.421875 1.578125l0.46875 -1.59375l1.421875 -4.796875l1.375 0l-2.59375 8.296875l-1.46875 0l-1.3125 -4.96875l-0.328125 -1.421875l-1.671875 6.390625l-1.46875 0zm13.375 0l4.40625 -11.453125l1.640625 0l4.6875 11.453125l-1.734375 0l-1.328125 -3.46875l-4.796875 0l-1.25 3.46875l-1.625 0zm3.3125 -4.703125l3.890625 0l-1.203125 -3.171875q-0.546875 -1.453125 -0.8125 -2.375q-0.21875 1.09375 -0.609375 2.1875l-1.265625 3.359375zm8.1875 5.390625l1.375 0.203125q0.078125 0.640625 0.46875 0.921875q0.53125 0.390625 1.4375 0.390625q0.96875 0 1.5 -0.390625q0.53125 -0.390625 0.71875 -1.09375q0.109375 -0.421875 0.109375 -1.8125q-0.921875 1.09375 -2.296875 1.09375q-1.71875 0 -2.65625 -1.234375q-0.9375 -1.234375 -0.9375 -2.96875q0 -1.1875 0.421875 -2.1875q0.4375 -1.0 1.25 -1.546875q0.828125 -0.546875 1.921875 -0.546875q1.46875 0 2.421875 1.1875l0 -1.0l1.296875 0l0 7.171875q0 1.9375 -0.390625 2.75q-0.390625 0.8125 -1.25 1.28125q-0.859375 0.46875 -2.109375 0.46875q-1.484375 0 -2.40625 -0.671875q-0.90625 -0.671875 -0.875 -2.015625zm1.171875 -4.984375q0 1.625 0.640625 2.375q0.65625 0.75 1.625 0.75q0.96875 0 1.625 -0.734375q0.65625 -0.75 0.65625 -2.34375q0 -1.53125 -0.671875 -2.296875q-0.671875 -0.78125 -1.625 -0.78125q-0.9375 0 -1.59375 0.765625q-0.65625 0.765625 -0.65625 2.265625zm13.6640625 1.625l1.453125 0.171875q-0.34375 1.28125 -1.28125 1.984375q-0.921875 0.703125 -2.359375 0.703125q-1.828125 0 -2.890625 -1.125q-1.0625 -1.125 -1.0625 -3.140625q0 -2.09375 1.078125 -3.25q1.078125 -1.15625 2.796875 -1.15625q1.65625 0 2.703125 1.140625q1.0625 1.125 1.0625 3.171875q0 0.125 0 0.375l-6.1875 0q0.078125 1.375 0.765625 2.109375q0.703125 0.71875 1.734375 0.71875q0.78125 0 1.328125 -0.40625q0.546875 -0.40625 0.859375 -1.296875zm-4.609375 -2.28125l4.625 0q-0.09375 -1.046875 -0.53125 -1.5625q-0.671875 -0.8125 -1.734375 -0.8125q-0.96875 0 -1.640625 0.65625q-0.65625 0.640625 -0.71875 1.71875zm7.8359375 4.953125l0 -8.296875l1.265625 0l0 1.171875q0.90625 -1.359375 2.640625 -1.359375q0.75 0 1.375 0.265625q0.625 0.265625 0.9375 0.703125q0.3125 0.4375 0.4375 1.046875q0.078125 0.390625 0.078125 1.359375l0 5.109375l-1.40625 0l0 -5.046875q0 -0.859375 -0.171875 -1.28125q-0.15625 -0.4375 -0.578125 -0.6875q-0.40625 -0.25 -0.96875 -0.25q-0.90625 0 -1.5625 0.578125q-0.640625 0.5625 -0.640625 2.15625l0 4.53125l-1.40625 0zm11.9609375 -1.265625l0.203125 1.25q-0.59375 0.125 -1.0625 0.125q-0.765625 0 -1.1875 -0.234375q-0.421875 -0.25 -0.59375 -0.640625q-0.171875 -0.40625 -0.171875 -1.671875l0 -4.765625l-1.03125 0l0 -1.09375l1.03125 0l0 -2.0625l1.40625 -0.84375l0 2.90625l1.40625 0l0 1.09375l-1.40625 0l0 4.84375q0 0.609375 0.0625 0.78125q0.078125 0.171875 0.25 0.28125q0.171875 0.09375 0.484375 0.09375q0.234375 0 0.609375 -0.0625z" fill-rule="nonzero"></path><path fill="#000000" fill-opacity="0.0" d="m409.59055 243.92126l81.51181 0l0 68.50394l-81.51181 0z" fill-rule="evenodd"></path><path stroke="#e06666" stroke-width="2.0" stroke-linejoin="round" stroke-linecap="butt" d="m409.59055 243.92126l81.51181 0l0 68.50394l-81.51181 0z" fill-rule="evenodd"></path><path fill="#000000" d="m425.09824 282.97324l0 -9.546875l4.234375 0q1.265625 0 1.921875 0.265625q0.671875 0.25 1.0625 0.90625q0.40625 0.65625 0.40625 1.4375q0 1.015625 -0.65625 1.71875q-0.65625 0.6875 -2.03125 0.875q0.5 0.25 0.765625 0.484375q0.546875 0.5 1.046875 1.265625l1.65625 2.59375l-1.578125 0l-1.265625 -1.984375q-0.5625 -0.859375 -0.921875 -1.3125q-0.34375 -0.453125 -0.640625 -0.640625q-0.28125 -0.1875 -0.5625 -0.25q-0.21875 -0.046875 -0.703125 -0.046875l-1.46875 0l0 4.234375l-1.265625 0zm1.265625 -5.328125l2.71875 0q0.859375 0 1.34375 -0.171875q0.484375 -0.1875 0.734375 -0.578125q0.265625 -0.390625 0.265625 -0.859375q0 -0.671875 -0.5 -1.109375q-0.484375 -0.4375 -1.546875 -0.4375l-3.015625 0l0 3.15625zm12.922028 3.109375l1.203125 0.140625q-0.28125 1.0625 -1.0625 1.65625q-0.765625 0.578125 -1.96875 0.578125q-1.515625 0 -2.40625 -0.9375q-0.890625 -0.9375 -0.890625 -2.609375q0 -1.75 0.890625 -2.703125q0.90625 -0.96875 2.34375 -0.96875q1.390625 0 2.265625 0.9375q0.875 0.9375 0.875 2.65625q0 0.109375 0 0.3125l-5.15625 0q0.0625 1.140625 0.640625 1.75q0.578125 0.59375 1.4375 0.59375q0.65625 0 1.109375 -0.328125q0.453125 -0.34375 0.71875 -1.078125zm-3.84375 -1.90625l3.859375 0q-0.078125 -0.859375 -0.4375 -1.296875q-0.5625 -0.6875 -1.453125 -0.6875q-0.8125 0 -1.359375 0.546875q-0.546875 0.53125 -0.609375 1.4375zm11.037476 1.59375l1.15625 0.15625q-0.1875 1.1875 -0.96875 1.859375q-0.78125 0.671875 -1.921875 0.671875q-1.40625 0 -2.28125 -0.921875q-0.859375 -0.9375 -0.859375 -2.65625q0 -1.125 0.375 -1.96875q0.375 -0.84375 1.125 -1.25q0.765625 -0.421875 1.65625 -0.421875q1.125 0 1.84375 0.578125q0.71875 0.5625 0.921875 1.609375l-1.140625 0.171875q-0.171875 -0.703125 -0.59375 -1.046875q-0.40625 -0.359375 -0.984375 -0.359375q-0.890625 0 -1.453125 0.640625q-0.546875 0.640625 -0.546875 2.0q0 1.40625 0.53125 2.03125q0.546875 0.625 1.40625 0.625q0.6875 0 1.140625 -0.421875q0.46875 -0.421875 0.59375 -1.296875zm6.8828125 0.3125l1.203125 0.140625q-0.28125 1.0625 -1.0625 1.65625q-0.765625 0.578125 -1.96875 0.578125q-1.515625 0 -2.40625 -0.9375q-0.890625 -0.9375 -0.890625 -2.609375q0 -1.75 0.890625 -2.703125q0.90625 -0.96875 2.34375 -0.96875q1.390625 0 2.265625 0.9375q0.875 0.9375 0.875 2.65625q0 0.109375 0 0.3125l-5.15625 0q0.0625 1.140625 0.640625 1.75q0.578125 0.59375 1.4375 0.59375q0.65625 0 1.109375 -0.328125q0.453125 -0.34375 0.71875 -1.078125zm-3.84375 -1.90625l3.859375 0q-0.078125 -0.859375 -0.4375 -1.296875q-0.5625 -0.6875 -1.453125 -0.6875q-0.8125 0 -1.359375 0.546875q-0.546875 0.53125 -0.609375 1.4375zm6.5374756 -4.0625l0 -1.359375l1.171875 0l0 1.359375l-1.171875 0zm0 8.1875l0 -6.90625l1.171875 0l0 6.90625l-1.171875 0zm4.86734 0l-2.625 -6.90625l1.234375 0l1.484375 4.140625q0.234375 0.65625 0.4375 1.390625q0.15625 -0.546875 0.4375 -1.3125l1.53125 -4.21875l1.21875 0l-2.625 6.90625l-1.09375 0zm9.4765625 -2.21875l1.203125 0.140625q-0.28125 1.0625 -1.0625 1.65625q-0.765625 0.578125 -1.96875 0.578125q-1.515625 0 -2.40625 -0.9375q-0.890625 -0.9375 -0.890625 -2.609375q0 -1.75 0.890625 -2.703125q0.90625 -0.96875 2.34375 -0.96875q1.390625 0 2.265625 0.9375q0.875 0.9375 0.875 2.65625q0 0.109375 0 0.3125l-5.15625 0q0.0625 1.140625 0.640625 1.75q0.578125 0.59375 1.4375 0.59375q0.65625 0 1.109375 -0.328125q0.453125 -0.34375 0.71875 -1.078125zm-3.84375 -1.90625l3.859375 0q-0.078125 -0.859375 -0.4375 -1.296875q-0.5625 -0.6875 -1.453125 -0.6875q-0.8125 0 -1.359375 0.546875q-0.546875 0.53125 -0.609375 1.4375zm6.5062256 4.125l0 -6.90625l1.0625 0l0 1.046875q0.40625 -0.734375 0.734375 -0.96875q0.34375 -0.234375 0.765625 -0.234375q0.59375 0 1.203125 0.375l-0.40625 1.078125q-0.4375 -0.25 -0.859375 -0.25q-0.390625 0 -0.703125 0.234375q-0.296875 0.234375 -0.421875 0.640625q-0.203125 0.625 -0.203125 1.359375l0 3.625l-1.171875 0z" fill-rule="nonzero"></path><path fill="#000000" fill-opacity="0.0" d="m442.72186 368.77954l81.51184 0l0 68.50394l-81.51184 0z" fill-rule="evenodd"></path><path stroke="#e06666" stroke-width="2.0" stroke-linejoin="round" stroke-linecap="butt" d="m442.72186 368.77954l81.51184 0l0 68.50394l-81.51184 0z" fill-rule="evenodd"></path><path fill="#000000" d="m454.20575 407.83148l0 -9.546875l6.4375 0l0 1.125l-5.171875 0l0 2.96875l4.46875 0l0 1.125l-4.46875 0l0 4.328125l-1.265625 0zm7.4851074 -3.453125q0 -1.921875 1.078125 -2.84375q0.890625 -0.765625 2.171875 -0.765625q1.421875 0 2.328125 0.9375q0.90625 0.921875 0.90625 2.578125q0 1.328125 -0.40625 2.09375q-0.390625 0.765625 -1.15625 1.1875q-0.765625 0.421875 -1.671875 0.421875q-1.453125 0 -2.359375 -0.921875q-0.890625 -0.9375 -0.890625 -2.6875zm1.203125 0q0 1.328125 0.578125 1.984375q0.59375 0.65625 1.46875 0.65625q0.875 0 1.453125 -0.65625q0.578125 -0.671875 0.578125 -2.03125q0 -1.28125 -0.59375 -1.9375q-0.578125 -0.65625 -1.4375 -0.65625q-0.875 0 -1.46875 0.65625q-0.578125 0.65625 -0.578125 1.984375zm6.6312256 3.453125l0 -6.90625l1.0625 0l0 1.046875q0.40625 -0.734375 0.734375 -0.96875q0.34375 -0.234375 0.765625 -0.234375q0.59375 0 1.203125 0.375l-0.40625 1.078125q-0.4375 -0.25 -0.859375 -0.25q-0.390625 0 -0.703125 0.234375q-0.296875 0.234375 -0.421875 0.640625q-0.203125 0.625 -0.203125 1.359375l0 3.625l-1.171875 0zm5.73526 0l-2.125 -6.90625l1.21875 0l1.09375 3.984375l0.421875 1.484375q0.015625 -0.109375 0.359375 -1.421875l1.09375 -4.046875l1.203125 0l1.03125 4.0l0.34375 1.328125l0.40625 -1.34375l1.171875 -3.984375l1.140625 0l-2.15625 6.90625l-1.21875 0l-1.09375 -4.140625l-0.265625 -1.171875l-1.40625 5.3125l-1.21875 0zm12.859528 -0.859375q-0.65625 0.5625 -1.265625 0.796875q-0.59375 0.21875 -1.28125 0.21875q-1.140625 0 -1.75 -0.546875q-0.609375 -0.5625 -0.609375 -1.4375q0 -0.5 0.21875 -0.921875q0.234375 -0.421875 0.609375 -0.671875q0.375 -0.25 0.84375 -0.390625q0.34375 -0.078125 1.046875 -0.171875q1.421875 -0.171875 2.09375 -0.40625q0 -0.234375 0 -0.296875q0 -0.71875 -0.328125 -1.015625q-0.453125 -0.390625 -1.34375 -0.390625q-0.8125 0 -1.21875 0.296875q-0.390625 0.28125 -0.578125 1.015625l-1.140625 -0.15625q0.15625 -0.734375 0.515625 -1.1875q0.359375 -0.453125 1.03125 -0.6875q0.671875 -0.25 1.5625 -0.25q0.890625 0 1.4375 0.203125q0.5625 0.203125 0.8125 0.53125q0.265625 0.3125 0.375 0.796875q0.046875 0.296875 0.046875 1.078125l0 1.5625q0 1.625 0.078125 2.0625q0.078125 0.4375 0.296875 0.828125l-1.21875 0q-0.1875 -0.359375 -0.234375 -0.859375zm-0.09375 -2.609375q-0.640625 0.265625 -1.921875 0.4375q-0.71875 0.109375 -1.015625 0.25q-0.296875 0.125 -0.46875 0.375q-0.15625 0.25 -0.15625 0.546875q0 0.46875 0.34375 0.78125q0.359375 0.3125 1.046875 0.3125q0.671875 0 1.203125 -0.296875q0.53125 -0.296875 0.78125 -0.8125q0.1875 -0.390625 0.1875 -1.171875l0 -0.421875zm2.9749756 3.46875l0 -6.90625l1.0625 0l0 1.046875q0.40625 -0.734375 0.734375 -0.96875q0.34375 -0.234375 0.765625 -0.234375q0.59375 0 1.203125 0.375l-0.40625 1.078125q-0.4375 -0.25 -0.859375 -0.25q-0.390625 0 -0.703125 0.234375q-0.296875 0.234375 -0.421875 0.640625q-0.203125 0.625 -0.203125 1.359375l0 3.625l-1.171875 0zm8.9383545 0l0 -0.875q-0.65625 1.03125 -1.9375 1.03125q-0.8125 0 -1.515625 -0.453125q-0.6875 -0.453125 -1.078125 -1.265625q-0.375 -0.828125 -0.375 -1.890625q0 -1.03125 0.34375 -1.875q0.34375 -0.84375 1.03125 -1.28125q0.703125 -0.453125 1.546875 -0.453125q0.625 0 1.109375 0.265625q0.5 0.25 0.796875 0.671875l0 -3.421875l1.171875 0l0 9.546875l-1.09375 0zm-3.703125 -3.453125q0 1.328125 0.5625 1.984375q0.5625 0.65625 1.328125 0.65625q0.765625 0 1.296875 -0.625q0.53125 -0.625 0.53125 -1.90625q0 -1.421875 -0.546875 -2.078125q-0.546875 -0.671875 -1.34375 -0.671875q-0.78125 0 -1.3125 0.640625q-0.515625 0.625 -0.515625 2.0zm11.365601 1.234375l1.203125 0.140625q-0.28125 1.0625 -1.0625 1.65625q-0.765625 0.578125 -1.96875 0.578125q-1.515625 0 -2.40625 -0.9375q-0.890625 -0.9375 -0.890625 -2.609375q0 -1.75 0.890625 -2.703125q0.90625 -0.96875 2.34375 -0.96875q1.390625 0 2.265625 0.9375q0.875 0.9375 0.875 2.65625q0 0.109375 0 0.3125l-5.15625 0q0.0625 1.140625 0.640625 1.75q0.578125 0.59375 1.4375 0.59375q0.65625 0 1.109375 -0.328125q0.453125 -0.34375 0.71875 -1.078125zm-3.84375 -1.90625l3.859375 0q-0.078125 -0.859375 -0.4375 -1.296875q-0.5625 -0.6875 -1.453125 -0.6875q-0.8125 0 -1.359375 0.546875q-0.546875 0.53125 -0.609375 1.4375zm6.5062256 4.125l0 -6.90625l1.0625 0l0 1.046875q0.40625 -0.734375 0.734375 -0.96875q0.34375 -0.234375 0.765625 -0.234375q0.59375 0 1.203125 0.375l-0.40625 1.078125q-0.4375 -0.25 -0.859375 -0.25q-0.390625 0 -0.703125 0.234375q-0.296875 0.234375 -0.421875 0.640625q-0.203125 0.625 -0.203125 1.359375l0 3.625l-1.171875 0z" fill-rule="nonzero"></path><path fill="#efefef" d="m597.65247 240.0603l90.99133 4.9361115c12.563293 0.6815491 22.018738 14.673935 21.119385 31.252884c-0.89941406 16.578949 -11.813049 29.46637 -24.376282 28.78482l-90.99133 -4.936096l0 0c-12.563293 -0.6815491 -22.018738 -14.67392 -21.119385 -31.2529c0.89941406 -16.578949 11.813049 -29.466354 24.376282 -28.78482z" fill-rule="evenodd"></path><path fill="#000000" fill-opacity="0.0" d="m685.3869 305.03412c-12.563293 -0.68151855 -22.018738 -14.67392 -21.119385 -31.252869c0.899353 -16.578949 11.812988 -29.46637 24.376282 -28.784836" fill-rule="evenodd"></path><path fill="#000000" fill-opacity="0.0" d="m597.65247 240.0603l90.99133 4.9361115c12.563293 0.6815491 22.018738 14.673935 21.119385 31.252884c-0.89941406 16.578949 -11.813049 29.46637 -24.376282 28.78482l-90.99133 -4.936096l0 0c-12.563293 -0.6815491 -22.018738 -14.67392 -21.119385 -31.2529c0.89941406 -16.578949 11.813049 -29.466354 24.376282 -28.78482z" fill-rule="evenodd"></path><path stroke="#e06666" stroke-width="2.0" stroke-linejoin="round" stroke-linecap="butt" d="m685.3869 305.03412c-12.563293 -0.68151855 -22.018738 -14.67392 -21.119385 -31.252869c0.899353 -16.578949 11.812988 -29.46637 24.376282 -28.784836" fill-rule="evenodd"></path><path stroke="#e06666" stroke-width="2.0" stroke-linejoin="round" stroke-linecap="butt" d="m597.65247 240.0603l90.99133 4.9361115c12.563293 0.6815491 22.018738 14.673935 21.119385 31.252884c-0.89941406 16.578949 -11.813049 29.46637 -24.376282 28.78482l-90.99133 -4.936096l0 0c-12.563293 -0.6815491 -22.018738 -14.67392 -21.119385 -31.2529c0.89941406 -16.578949 11.813049 -29.466354 24.376282 -28.78482z" fill-rule="evenodd"></path><path fill="#000000" d="m618.21515 275.07294q0.84155273 0.6402588 1.5596313 0.96087646l-0.40625 0.85424805q-1.0102539 -0.41470337 -1.9968262 -1.2662659q-1.0922852 0.51971436 -2.371643 0.45031738q-1.2949829 -0.070251465 -2.3064575 -0.7510376q-1.0114746 -0.68078613 -1.527832 -1.8354492q-0.5007324 -1.1538086 -0.42370605 -2.5736084q0.07702637 -1.4197998 0.701355 -2.5438843q0.6398926 -1.12323 1.7174072 -1.6593933q1.0939331 -0.55093384 2.404541 -0.47982788q1.3261719 0.07192993 2.3376465 0.75271606q1.0270996 0.6816406 1.527832 1.8354797q0.5007324 1.1538086 0.42370605 2.5736084q-0.064331055 1.18573 -0.47399902 2.1023865q-0.40960693 0.9166565 -1.1654053 1.579834zm-2.689148 -1.7732849q1.0752563 0.37130737 1.7443237 1.0178528q1.1627808 -0.9540405 1.2736206 -2.9978943q0.06262207 -1.1545715 -0.28082275 -2.033844q-0.3427124 -0.89486694 -1.0817871 -1.4043884q-0.72265625 -0.524292 -1.6743774 -0.57592773q-1.4041748 -0.076171875 -2.3928223 0.84036255q-0.9729614 0.9173889 -1.0770874 2.8364563q-0.10070801 1.8566284 0.765625 2.9051208q0.8671875 1.0328674 2.2869873 1.1098633q0.68652344 0.037261963 1.2929077 -0.1802063q-0.5717163 -0.4222107 -1.2185059 -0.61380005l0.36193848 -0.903595zm10.130798 3.1940918l0.054992676 -1.0141296q-0.87475586 1.1261292 -2.2477417 1.0516663q-0.6084595 -0.03302002 -1.1262817 -0.2958374q-0.51776123 -0.26278687 -0.76434326 -0.62042236q-0.23016357 -0.372406 -0.3114624 -0.8931885q-0.043762207 -0.34661865 -0.0031738281 -1.09552l0.2319336 -4.2749634l1.170166 0.06347656l-0.20739746 3.8225098q-0.049926758 0.9205017 -0.0044555664 1.2359314q0.08380127 0.47399902 0.4282837 0.7586975q0.3453369 0.269104 0.87579346 0.29788208q0.51483154 0.027923584 0.99731445 -0.21191406q0.48242188 -0.23986816 0.69506836 -0.6977539q0.21258545 -0.45791626 0.26000977 -1.3316345l0.20056152 -3.6976929l1.170166 0.06347656l-0.37408447 6.896118l-1.0453491 -0.05670166zm7.7246094 -1.8029785l1.1937256 0.20559692q-0.3383789 1.0457153 -1.1506348 1.596283q-0.7958374 0.5357971 -1.9971924 0.47061157q-1.5133667 -0.082092285 -2.3519287 -1.0664673q-0.838501 -0.9843445 -0.74798584 -2.653778q0.0947876 -1.7474365 1.0357666 -2.6509094q0.95739746 -0.9182434 2.3927612 -0.84036255q1.3886108 0.07531738 2.2115479 1.0588379q0.822937 0.9835205 0.72979736 2.6997375q-0.00592041 0.10922241 -0.016906738 0.31204224l-5.1486816 -0.27929688q6.1035156E-4 1.142334 0.54486084 1.782135q0.545166 0.624176 1.4032593 0.67074585q0.65527344 0.03555298 1.1254883 -0.2675476q0.47113037 -0.31869507 0.77612305 -1.0376282zm-3.7348633 -2.1116638l3.8536987 0.20907593q-0.031433105 -0.8623352 -0.36657715 -1.3186646q-0.52441406 -0.71698 -1.4137573 -0.7652283q-0.8112793 -0.044006348 -1.3870239 0.47244263q-0.5748291 0.5008545 -0.68634033 1.4023743zm10.813416 4.717682l0.05505371 -1.0141296q-0.8748169 1.1261597 -2.2478027 1.0516663q-0.6084595 -0.03302002 -1.1262207 -0.29580688q-0.51776123 -0.26281738 -0.7644043 -0.6204529q-0.23016357 -0.372406 -0.3114624 -0.8931885q-0.043762207 -0.34661865 -0.003112793 -1.09552l0.23187256 -4.2749634l1.170166 0.06347656l-0.20739746 3.8225098q-0.049926758 0.9205017 -0.0044555664 1.2359314q0.083862305 0.47399902 0.4282837 0.7586975q0.3453369 0.269104 0.87579346 0.29788208q0.5148926 0.027923584 0.99731445 -0.21191406q0.4824829 -0.23983765 0.69506836 -0.6977539q0.21264648 -0.45791626 0.26000977 -1.3316345l0.20062256 -3.6976624l1.170166 0.06347656l-0.3741455 6.8960876l-1.0453491 -0.05670166zm7.7246094 -1.802948l1.1937866 0.2055664q-0.33843994 1.0457153 -1.1506958 1.596283q-0.79577637 0.5357971 -1.9971313 0.47061157q-1.5134277 -0.082092285 -2.3519897 -1.0664673q-0.838501 -0.9843445 -0.7479248 -2.653778q0.0947876 -1.7474365 1.0357056 -2.6509094q0.95739746 -0.9182434 2.3928223 -0.84036255q1.3885498 0.07531738 2.2114868 1.0588379q0.822937 0.9835205 0.7298584 2.6997375q-0.00592041 0.10922241 -0.016967773 0.31204224l-5.1486816 -0.27929688q6.713867E-4 1.142334 0.5449219 1.782135q0.545105 0.62420654 1.4031982 0.67074585q0.6553345 0.03555298 1.1255493 -0.2675476q0.47106934 -0.31869507 0.776062 -1.0375977zm-3.7348022 -2.1116638l3.8536987 0.20904541q-0.03149414 -0.8623352 -0.36663818 -1.3186646q-0.52441406 -0.71694946 -1.4137573 -0.76519775q-0.8112793 -0.044036865 -1.3869629 0.4724121q-0.57489014 0.5008545 -0.68634033 1.4024048z" fill-rule="nonzero"></path><path fill="#000000" fill-opacity="0.0" d="m491.10236 278.17322c20.528534 0 30.7854 -2.3306885 41.057068 -4.6614075c10.271606 -2.330719 20.558044 -4.6614075 41.11615 -4.6614075" fill-rule="evenodd"></path><path stroke="#595959" stroke-width="1.0" stroke-linejoin="round" stroke-linecap="butt" d="m491.10236 278.17322c20.528503 0 30.7854 -2.3306885 41.057068 -4.6614075c5.135803 -1.1653442 10.27533 -2.330719 16.700623 -3.204712c3.2127075 -0.43701172 6.746826 -0.801178 10.762634 -1.0561218c2.0079346 -0.1274414 4.1362305 -0.2276001 6.4050903 -0.29586792c1.1343994 -0.03414917 2.303894 -0.060333252 3.5110474 -0.07797241l0.30975342 -0.0033569336" fill-rule="evenodd"></path><path fill="#595959" stroke="#595959" stroke-width="1.0" stroke-linecap="butt" d="m569.8486 268.87378l-1.1168823 1.1322327l3.0820312 -1.1456604l-3.097351 -1.1034546z" fill-rule="evenodd"></path><path fill="#f3f3f3" d="m198.01808 199.6626l81.511795 0l0 77.76376l-81.511795 0z" fill-rule="evenodd"></path><path stroke="#e06666" stroke-width="2.0" stroke-linejoin="round" stroke-linecap="butt" d="m198.01808 199.6626l81.511795 0l0 77.76376l-81.511795 0z" fill-rule="evenodd"></path><path fill="#000000" d="m229.56447 240.00073l1.265625 0.3125q-0.390625 1.5625 -1.421875 2.375q-1.03125 0.8125 -2.53125 0.8125q-1.53125 0 -2.5 -0.625q-0.96875 -0.625 -1.484375 -1.8125q-0.5 -1.1875 -0.5 -2.5625q0 -1.484375 0.5625 -2.59375q0.578125 -1.109375 1.625 -1.6875q1.0625 -0.578125 2.328125 -0.578125q1.421875 0 2.390625 0.734375q0.984375 0.71875 1.375 2.046875l-1.25 0.296875q-0.328125 -1.046875 -0.96875 -1.515625q-0.625 -0.484375 -1.578125 -0.484375q-1.09375 0 -1.84375 0.53125q-0.734375 0.53125 -1.03125 1.421875q-0.296875 0.875 -0.296875 1.828125q0 1.21875 0.34375 2.125q0.359375 0.90625 1.109375 1.359375q0.75 0.4375 1.625 0.4375q1.0625 0 1.796875 -0.609375q0.734375 -0.609375 0.984375 -1.8125zm2.6564026 3.34375l0 -9.546875l1.171875 0l0 9.546875l-1.171875 0zm2.99234 -8.1875l0 -1.359375l1.171875 0l0 1.359375l-1.171875 0zm0 8.1875l0 -6.90625l1.171875 0l0 6.90625l-1.171875 0zm7.67984 -2.21875l1.203125 0.140625q-0.28125 1.0625 -1.0625 1.65625q-0.765625 0.578125 -1.96875 0.578125q-1.515625 0 -2.40625 -0.9375q-0.890625 -0.9375 -0.890625 -2.609375q0 -1.75 0.890625 -2.703125q0.90625 -0.96875 2.34375 -0.96875q1.390625 0 2.265625 0.9375q0.875 0.9375 0.875 2.65625q0 0.109375 0 0.3125l-5.15625 0q0.0625 1.140625 0.640625 1.75q0.578125 0.59375 1.4375 0.59375q0.65625 0 1.109375 -0.328125q0.453125 -0.34375 0.71875 -1.078125zm-3.84375 -1.90625l3.859375 0q-0.078125 -0.859375 -0.4375 -1.296875q-0.5625 -0.6875 -1.453125 -0.6875q-0.8125 0 -1.359375 0.546875q-0.546875 0.53125 -0.609375 1.4375zm6.5218506 4.125l0 -6.90625l1.0625 0l0 0.984375q0.75 -1.140625 2.1875 -1.140625q0.625 0 1.15625 0.21875q0.53125 0.21875 0.78125 0.59375q0.265625 0.359375 0.375 0.859375q0.0625 0.328125 0.0625 1.140625l0 4.25l-1.171875 0l0 -4.203125q0 -0.71875 -0.140625 -1.0625q-0.140625 -0.359375 -0.484375 -0.5625q-0.34375 -0.21875 -0.8125 -0.21875q-0.75 0 -1.296875 0.46875q-0.546875 0.46875 -0.546875 1.796875l0 3.78125l-1.171875 0zm9.974976 -1.046875l0.171875 1.03125q-0.5 0.109375 -0.890625 0.109375q-0.640625 0 -1.0 -0.203125q-0.34375 -0.203125 -0.484375 -0.53125q-0.140625 -0.328125 -0.140625 -1.390625l0 -3.96875l-0.859375 0l0 -0.90625l0.859375 0l0 -1.71875l1.171875 -0.703125l0 2.421875l1.171875 0l0 0.90625l-1.171875 0l0 4.046875q0 0.5 0.046875 0.640625q0.0625 0.140625 0.203125 0.234375q0.140625 0.078125 0.40625 0.078125q0.203125 0 0.515625 -0.046875z" fill-rule="nonzero"></path><path fill="#000000" fill-opacity="0.0" d="m279.52988 238.54448c32.515076 0 48.77423 9.905518 65.03015 19.81102c16.25589 9.905518 32.508545 19.811035 65.01712 19.811035" fill-rule="evenodd"></path><path stroke="#595959" stroke-width="1.0" stroke-linejoin="round" stroke-linecap="butt" d="m279.5299 238.54448c32.515045 0 48.7742 9.905502 65.03009 19.81102c8.12796 4.952759 16.255096 9.905518 26.413849 13.620087c5.0793457 1.8572693 10.666626 3.4049988 17.015808 4.488434c3.174591 0.541687 6.539673 0.9673157 10.127014 1.2575073c1.7936707 0.1451416 3.6428833 0.25637817 5.5516357 0.33132935c0.47720337 0.018737793 0.95809937 0.035217285 1.4427795 0.04937744l1.0391846 0.025238037" fill-rule="evenodd"></path><path fill="#595959" stroke="#595959" stroke-width="1.0" stroke-linecap="butt" d="m406.15027 278.12747l-1.1373291 1.1116943l3.1023865 -1.0892944l-3.0767517 -1.159729z" fill-rule="evenodd"></path><path fill="#000000" fill-opacity="0.0" d="m709.7632 276.2493c12.530212 0 44.131165 17.431366 25.060425 30.335205c-19.070679 12.903809 -88.81299 21.28006 -158.5506 30.335175c-69.73764 9.055115 -139.47058 18.789093 -158.55063 33.05063c-19.080048 14.261566 12.492828 33.05066 24.985687 33.05066" fill-rule="evenodd"></path><path stroke="#595959" stroke-width="1.0" stroke-linejoin="round" stroke-linecap="butt" d="m709.7632 276.2493c12.530212 0 44.131165 17.431366 25.060486 30.335175c-19.07074 12.903839 -88.81305 21.28009 -158.55066 30.335205c-69.73761 9.055115 -139.47061 18.789093 -158.5506 33.05063c-9.540039 7.1307983 -6.4168396 15.393463 0.6529846 21.873413c3.534912 3.2399902 8.056488 6.0342712 12.475128 8.018616c2.20932 0.992157 4.3928833 1.7818298 6.4145203 2.3234558c0.5054321 0.13537598 1.0007019 0.25527954 1.4837646 0.35894775c0.120788574 0.025909424 0.24078369 0.050842285 0.35995483 0.07473755l0.19165039 0.036987305" fill-rule="evenodd"></path><path fill="#595959" stroke="#595959" stroke-width="1.0" stroke-linecap="butt" d="m439.30038 402.65646l-1.237793 0.9985962l3.1918335 -0.7895813l-2.9526367 -1.4468384z" fill-rule="evenodd"></path><path fill="#000000" fill-opacity="0.0" d="m524.2337 403.0315c38.606262 0 57.909424 8.5590515 77.212585 17.118103c19.303162 8.5590515 38.606262 17.118134 77.212585 17.118134" fill-rule="evenodd"></path><path stroke="#595959" stroke-width="1.0" stroke-linejoin="round" stroke-linecap="butt" d="m524.2337 403.0315c38.606262 0 57.909424 8.5590515 77.212585 17.118103c9.65155 4.279541 19.303162 8.5590515 31.367615 11.768707c6.0322266 1.6048279 12.667664 2.9421692 20.208008 3.8783264c3.7701416 0.4680481 7.7664795 0.83584595 12.026733 1.0866089c2.130127 0.12536621 4.326233 0.22149658 6.5930176 0.28625488c1.1334229 0.032409668 2.284546 0.05697632 3.4538574 0.07342529l0.13635254 0.0014343262" fill-rule="evenodd"></path><path fill="#595959" stroke="#595959" stroke-width="1.0" stroke-linecap="butt" d="m675.2319 437.24432l-1.1322632 1.1168823l3.097412 -1.1034546l-3.0820312 -1.1456604z" fill-rule="evenodd"></path><path fill="#000000" fill-opacity="0.0" d="m277.47003 203.05194l86.519684 18.803146l-6.834656 31.370087l-86.519684 -18.803146z" fill-rule="evenodd"></path><path fill="#000000" d="m301.62143 225.78453q-1.0646057 0.776001 -1.9501648 0.5835266q-0.5496826 -0.1194458 -0.8190613 -0.49778748q-0.26605225 -0.39361572 -0.16629028 -0.8516083q0.063201904 -0.29008484 0.37554932 -0.9897003l1.1755981 -2.6066742l0.79397583 0.17254639l-1.2846069 2.886795q-0.15948486 0.3650818 -0.20605469 0.57881165q-0.056549072 0.25953674 0.06286621 0.4453888q0.13470459 0.18916321 0.45532227 0.2588501q0.3359375 0.073013306 0.69314575 -0.025238037q0.35723877 -0.09825134 0.6461487 -0.32328796q0.3041687 -0.2217102 0.52804565 -0.5887909q0.16009521 -0.22103882 0.41531372 -0.8051605l0.87323 -1.9528503l0.8092346 0.1758728l-2.02359 4.517029l-0.73287964 -0.15927124l0.35421753 -0.8184509zm0.8687744 2.98703l2.7858582 -6.2541656l0.74816895 0.16259766l-0.28378296 0.6418762q0.5086975 -0.3531494 0.8659363 -0.45140076q0.37249756 -0.09492493 0.73895264 -0.015289307q0.67181396 0.14601135 1.0048218 0.746048q0.33636475 0.5847626 0.13677979 1.5007782q-0.15963745 0.73280334 -0.5369873 1.29039q-0.37734985 0.55758667 -0.8083496 0.8476715q-0.43103027 0.29008484 -0.8373718 0.39364624q-0.40304565 0.08828735 -0.7847595 0.005340576q-0.8550415 -0.18583679 -1.1235046 -1.1555939l-1.0965271 2.4639587l-0.8092346 -0.17585754zm2.406189 -3.410553q-0.11642456 0.53434753 -0.086639404 0.7646637q0.043670654 0.31330872 0.26333618 0.5529175q0.22296143 0.22434998 0.5588684 0.29734802q0.6871033 0.14932251 1.2842407 -0.53637695q0.59716797 -0.68569946 0.77679443 -1.5101013q0.1296997 -0.5954132 -0.090545654 -0.97906494q-0.21691895 -0.39891052 -0.6444397 -0.49183655q-0.3053589 -0.06636047 -0.601532 0.045166016q-0.29281616 0.09625244 -0.59503174 0.38235474q-0.29888916 0.27082825 -0.5546875 0.71092224q-0.23718262 0.4281311 -0.31036377 0.76400757zm3.8850708 1.1801147l0.81921387 0.13006592q-0.07650757 0.3511505 -0.022857666 0.6186371q0.05368042 0.26750183 0.29525757 0.47990417q0.25683594 0.2157135 0.6385498 0.29867554q0.5343933 0.11613464 0.84051514 -0.04118347q0.32141113 -0.15400696 0.38461304 -0.44407654q0.04324341 -0.19847107 -0.066223145 -0.43013q-0.12802124 -0.21969604 -0.70944214 -0.6338806q-0.5813904 -0.4141693 -0.7260742 -0.5575409q-0.2654419 -0.2495575 -0.3649292 -0.52700806q-0.09945679 -0.27745056 -0.02960205 -0.59806824q0.12307739 -0.5648651 0.65234375 -0.86557007q0.54785156 -0.31266785 1.3418274 -0.1401062q0.8855591 0.1924591 1.2538147 0.7042084q0.3835144 0.5150757 0.2524414 1.1901398l-0.7919922 -0.108169556q0.07785034 -0.43078613 -0.1590271 -0.7381134q-0.23355103 -0.32258606 -0.75268555 -0.4353943q-0.41226196 -0.08959961 -0.6997986 0.055770874q-0.26895142 0.13343811 -0.31884766 0.36244202q-0.046539307 0.21372986 0.12728882 0.4433899q0.09887695 0.1334076 0.6105957 0.50045776q0.82962036 0.5960388 1.0240173 0.87812805q0.3019104 0.44937134 0.18548584 0.9837036q-0.07650757 0.35113525 -0.36343384 0.6405487q-0.2869568 0.2894287 -0.77630615 0.4069214q-0.48602295 0.102249146 -1.0815125 -0.027175903q-0.8244934 -0.17918396 -1.3148804 -0.7174835q-0.4784546 -0.51971436 -0.24835205 -1.4290924zm6.149811 2.3438873l-0.28045654 0.6266022q-0.30673218 0.013290405 -0.5662842 -0.043121338q-0.48858643 -0.10618591 -0.7135315 -0.39491272q-0.17385864 -0.22966003 -0.10733032 -0.53500366q0.03326416 -0.15266418 0.2632141 -0.6943054l1.1789246 -2.6219482l-0.6412964 -0.13935852l0.25854492 -0.59939575l0.64126587 0.13935852l0.49710083 -1.1071777l1.051117 -0.3471985l-0.73898315 1.630249l0.79397583 0.17256165l-0.2738037 0.59606934l-0.7939453 -0.17254639l-1.1032104 2.4944916q-0.21664429 0.48057556 -0.23660278 0.5721741q-0.033233643 0.15266418 0.02645874 0.24559021q0.07498169 0.09625244 0.25820923 0.13606262q0.259552 0.056411743 0.4866333 0.041809082zm0.5114746 0.7987213l2.02359 -4.517044l0.70236206 0.15264893l-0.41137695 0.93392944q0.48617554 -0.4699707 0.8939209 -0.653183q0.41104126 -0.19848633 0.77749634 -0.11883545q0.2290039 0.04977417 0.5402832 0.30929565l-0.48364258 0.6783905q-0.18048096 -0.1991272 -0.42477417 -0.25221252q-0.42752075 -0.092926025 -0.9734192 0.28411865q-0.54589844 0.37704468 -1.0715637 1.5419922l-0.80944824 1.8068085l-0.76342773 -0.16590881zm6.850708 -0.19007874l0.77734375 0.24888611q-0.30963135 0.5403137 -1.0368042 0.94192505q-0.7085571 0.3896637 -1.5483398 0.20715332q-0.5343933 -0.11613464 -0.9239502 -0.45663452q-0.3742981 -0.33718872 -0.50354004 -0.8449707q-0.12924194 -0.5077667 4.5776367E-4 -1.1031799q0.16964722 -0.7786102 0.67715454 -1.4198303q0.5260925 -0.6531677 1.1675415 -0.88153076q0.6447754 -0.24363708 1.3165894 -0.09762573q0.8397827 0.18251038 1.2272339 0.826355q0.39074707 0.62857056 0.19119263 1.5445862q-0.07318115 0.3358612 -0.21408081 0.68899536l-3.4812317 -0.7565613q-0.04522705 0.13407898 -0.07183838 0.25621033q-0.14300537 0.6564789 0.08584595 1.0739746q0.22888184 0.417511 0.6716614 0.5137329q0.41226196 0.08959961 0.8691101 -0.09892273q0.47213745 -0.18521118 0.7956543 -0.64256287zm-2.0799866 -1.6832428l2.6567383 0.5773773q0.026611328 -0.12213135 0.039916992 -0.18319702q0.12973022 -0.5954132 -0.10580444 -0.9823761q-0.23550415 -0.38697815 -0.7088318 -0.48983765q-0.5191345 -0.11282349 -1.0231628 0.145401q-0.48876953 0.26153564 -0.8588562 0.93263245zm6.651825 3.7481384q-0.5040283 0.2582245 -0.93759155 0.33988953q-0.41830444 0.0849762 -0.8458252 -0.00793457q-0.6565552 -0.14268494 -0.98565674 -0.61395264q-0.31381226 -0.46794128 -0.18078613 -1.0786133q0.08648682 -0.39694214 0.33624268 -0.6624603q0.24975586 -0.2655182 0.57977295 -0.38568115q0.34527588 -0.11683655 0.7894287 -0.100250244q0.28814697 -0.0013427734 1.0429382 0.13072205q0.77008057 0.13537598 1.1325989 0.086242676q0.16479492 -0.3159485 0.21136475 -0.5296936q0.05987549 -0.27479553 -0.10202026 -0.48587036q-0.24356079 -0.27679443 -0.7779541 -0.39292908q-0.5038452 -0.10949707 -0.87438965 0.049819946q-0.36721802 0.14404297 -0.6097107 0.5230713l-0.79260254 -0.25219727q0.39730835 -0.6491852 1.0115356 -0.89945984q0.632843 -0.26220703 1.4573364 -0.08302307q0.8703003 0.18914795 1.2962952 0.7294464q0.31518555 0.3882904 0.20544434 0.89208984q-0.0831604 0.3816681 -0.29647827 0.84698486l-0.51568604 1.1191406q-0.24520874 0.5383301 -0.3217163 0.88946533q-0.04989624 0.2290039 -0.048095703 0.66111755l-0.8092346 -0.1758728q-0.02645874 -0.24559021 0.03479004 -0.6000519zm0.6859131 -1.7537079q-0.18457031 0.0398407 -0.38974 0.027236938q-0.18984985 -0.009292603 -0.65789795 -0.06303406q-0.7156677 -0.09158325 -1.0257263 -0.0630188q-0.3100586 0.028549194 -0.50930786 0.20910645q-0.18399048 0.18386841 -0.23721313 0.4281311q-0.07650757 0.35113525 0.10595703 0.61465454q0.1824646 0.26350403 0.62527466 0.3597412q0.39697266 0.08627319 0.80999756 -0.047821045q0.41299438 -0.13409424 0.7065735 -0.4540558q0.29693604 -0.33520508 0.5720825 -1.0109406zm1.0660706 2.7420807l2.0083313 -4.520355l0.8092346 0.1758728l-0.33761597 0.74209595q0.5678406 -0.4042511 0.95892334 -0.5111389q0.39440918 -0.12214661 0.80667114 -0.032546997q0.44277954 0.09623718 0.6796875 0.4035492q0.25546265 0.29536438 0.25726318 0.727478q0.44763184 -0.3664093 0.89120483 -0.49388123q0.4621277 -0.1394043 0.90493774 -0.043167114q0.5802002 0.12608337 0.8070984 0.47920227q0.24551392 0.34117126 0.13574219 0.84498596q-0.04989624 0.2290039 -0.26654053 0.70957947l-1.2879333 2.9020538l-0.8092346 -0.1758728l1.3231506 -2.9903412q0.17477417 -0.36175537 0.20803833 -0.51441956q0.053222656 -0.24427795 -0.07287598 -0.39959717q-0.10748291 -0.16726685 -0.3822937 -0.22698975q-0.3511963 -0.07632446 -0.77948 0.05445862q-0.41299438 0.13409424 -0.706604 0.45404053q-0.2749939 0.30799866 -0.6026001 1.004303l-0.9722595 2.1871643l-0.8092346 -0.17585754l1.3670044 -3.0447693q0.1461792 -0.3040161 0.17611694 -0.4414215q0.04989624 -0.2290039 -0.07284546 -0.3995819q-0.104156494 -0.1825409 -0.3484497 -0.23562622q-0.33590698 -0.073013306 -0.7641907 0.057769775q-0.4130249 0.13409424 -0.74380493 0.47795105q-0.3121643 0.33189392 -0.6245117 1.0315247l-0.95895386 2.1260834l-0.79397583 -0.17254639z" fill-rule="nonzero"></path><path fill="#000000" fill-opacity="0.0" d="m553.7501 381.75342l112.69293 20.787415l-5.826782 31.590546l-112.69293 -20.787415z" fill-rule="evenodd"></path><path fill="#000000" d="m585.5025 405.1585q-0.854187 0.66864014 -1.6071167 0.52975464q-0.6760864 -0.12472534 -1.0463867 -0.70144653q-0.35205078 -0.58929443 -0.17633057 -1.5419617q0.1586914 -0.86047363 0.6453247 -1.5174866q0.5019531 -0.6541748 1.1049805 -0.90838623q0.6057739 -0.26956177 1.1282349 -0.17318726q0.89123535 0.16436768 1.1934814 1.1098938l1.0082397 -2.4515076l0.79907227 0.14736938l-2.5777588 6.30896l-0.7529297 -0.1388855l0.28118896 -0.66311646zm-1.9871216 -1.717102q-0.093566895 0.5070801 -0.05517578 0.81604004q0.056518555 0.29641724 0.2501831 0.5386963q0.21185303 0.22973633 0.53448486 0.2892456q0.55322266 0.10205078 1.1065063 -0.3996582q0.7381592 -0.6423645 0.9450073 -1.7640686q0.1048584 -0.5685425 -0.1303711 -0.929718q-0.23242188 -0.37652588 -0.67803955 -0.45874023q-0.29193115 -0.053833008 -0.56329346 0.039093018q-0.25317383 0.08041382 -0.5557251 0.3423767q-0.2871704 0.26480103 -0.546875 0.7253418q-0.24151611 0.44799805 -0.30670166 0.8013916zm4.2198486 0.98495483q0.25787354 -1.3982849 1.2423096 -2.1700134q0.83032227 -0.6253662 1.9213257 -0.4241333q0.86047363 0.15872192 1.2836914 0.7929077q0.4232788 0.6341553 0.25323486 1.5560913q-0.15020752 0.8143921 -0.61865234 1.4588623q-0.45306396 0.64730835 -1.1385498 0.9180908q-0.66729736 0.25823975 -1.3433838 0.1335144q-0.5531616 -0.10202026 -0.97161865 -0.4175415q-0.4156494 -0.3309021 -0.5820923 -0.80648804q-0.15118408 -0.4727478 -0.04626465 -1.0412903zm0.83135986 0.058013916q-0.124694824 0.67611694 0.1328125 1.0890503q0.26031494 0.3975525 0.75201416 0.48825073q0.26123047 0.048187256 0.5269165 -0.014007568q0.2810669 -0.059387207 0.53302 -0.2194519q0.2701416 -0.17260742 0.47485352 -0.4208374q0.20465088 -0.2482605 0.35638428 -0.55392456q0.22045898 -0.42010498 0.29412842 -0.8196106q0.11907959 -0.6453552 -0.13842773 -1.0582886q-0.25463867 -0.4283142 -0.7463989 -0.51901245q-0.38409424 -0.07086182 -0.7407837 0.054016113q-0.34136963 0.12768555 -0.6677246 0.43292236q-0.30822754 0.2926941 -0.51904297 0.7463684q-0.19256592 0.4411316 -0.25775146 0.79452515zm4.7070923 2.8225708l0.371521 -4.8569336l0.7836914 0.14456177l-0.17883301 2.175537l-0.13171387 1.230896q-0.022705078 0.122924805 -0.083862305 0.5406494q0.22332764 -0.43548584 0.36090088 -0.66430664q0.1375122 -0.22885132 0.43481445 -0.63479614l1.5808716 -2.2823486l0.8911743 0.1643982l-0.28564453 2.4100342q-0.06842041 0.54348755 -0.22027588 1.4529114q0.34100342 -0.5567627 1.0436401 -1.523468l1.4137573 -1.9794922l0.8143921 0.15020752l-3.2141724 4.3325806l-0.82977295 -0.15307617l0.3314209 -2.8305664q0.032836914 -0.2640686 0.15350342 -1.0044556q-0.27227783 0.44232178 -0.6201172 0.9501343l-1.7701416 2.5334473l-0.8451538 -0.1559143zm5.7181396 1.054779l1.8773804 -4.5791626l0.72216797 0.13320923l-0.32202148 0.798584q0.56414795 -0.38845825 1.0215454 -0.54241943q0.45739746 -0.15396118 0.90301514 -0.071777344q0.5685425 0.104888916 0.83166504 0.48709106q0.28137207 0.36965942 0.18499756 0.89208984q-0.050964355 0.2765808 -0.26342773 0.82528687l-1.1445923 2.7600403l-0.8143921 -0.15023804l1.2008667 -2.8926392q0.17437744 -0.42861938 0.21124268 -0.62835693q0.04534912 -0.24584961 -0.09820557 -0.41534424q-0.14068604 -0.18481445 -0.44799805 -0.24151611q-0.614624 -0.1133728 -1.1885376 0.24154663q-0.57385254 0.35488892 -0.9902344 1.406189l-0.8690796 2.127655l-0.8143921 -0.15023804zm5.479065 -0.67352295l0.822876 0.10412598q-0.06518555 0.35342407 -0.0029907227 0.6191101q0.06225586 0.26568604 0.31048584 0.47036743q0.26361084 0.20751953 0.6477661 0.27838135q0.53778076 0.09921265 0.8386841 -0.06774902q0.31622314 -0.16409302 0.3701172 -0.4560547q0.0368042 -0.19973755 -0.079956055 -0.42785645q-0.1350708 -0.21554565 -0.7293701 -0.61117554q-0.59436035 -0.39562988 -0.7435303 -0.5343628q-0.27331543 -0.24108887 -0.38165283 -0.5152893q-0.10827637 -0.27420044 -0.04876709 -0.5968628q0.1048584 -0.5685425 0.6241455 -0.88586426q0.5374756 -0.32983398 1.3365479 -0.1824646q0.8911743 0.1643982 1.2756348 0.66430664q0.3998413 0.5027466 0.2904663 1.1816711l-0.7949829 -0.08306885q0.06402588 -0.43310547 -0.18261719 -0.7327881q-0.24377441 -0.315094 -0.7661743 -0.411438q-0.414917 -0.076538086 -0.6975708 0.07785034q-0.26452637 0.14187622 -0.30700684 0.3723755q-0.03967285 0.21511841 0.14141846 0.43917847q0.10308838 0.13024902 0.62628174 0.48098755q0.8482666 0.56954956 1.0515747 0.84539795q0.3161621 0.43963623 0.21691895 0.9774475q-0.06518555 0.35339355 -0.34265137 0.6517639q-0.27746582 0.29837036 -0.76275635 0.43130493q-0.48242188 0.11755371 -1.0817261 0.007019043q-0.8297119 -0.15307617 -1.3370972 -0.6756592q-0.49487305 -0.504364 -0.29406738 -1.4206543zm6.2212524 2.1485596l-0.26013184 0.6352234q-0.3060913 0.022979736 -0.5673218 -0.02520752q-0.49169922 -0.09069824 -0.72576904 -0.37219238q-0.18115234 -0.22409058 -0.12445068 -0.5314026q0.028320312 -0.153656 0.24078369 -0.70233154l1.0940552 -2.658142l-0.64538574 -0.11904907l0.23913574 -0.6073303l0.6453247 0.11904907l0.4613037 -1.122467l1.0393066 -0.38024902l-0.68621826 1.6529236l0.79907227 0.1473999l-0.2545166 0.6044922l-0.79901123 -0.1473999l-1.0224609 2.5283508q-0.20111084 0.48724365 -0.21807861 0.57943726q-0.028381348 0.153656 0.034301758 0.24465942q0.07800293 0.09384155 0.26239014 0.12783813q0.26123047 0.048187256 0.4876709 0.026397705zm0.5368042 0.78222656l1.8773804 -4.5791626l0.70684814 0.13040161l-0.38116455 0.9465637q0.4708252 -0.48513794 0.8724365 -0.68118286q0.40441895 -0.21139526 0.77319336 -0.14337158q0.23046875 0.042510986 0.5498657 0.29211426l-0.46154785 0.6933899q-0.18676758 -0.19332886 -0.4326172 -0.23867798q-0.43023682 -0.07937622 -0.9636841 0.3147583q-0.5335083 0.39416504 -1.0214233 1.5752258l-0.75097656 1.831665l-0.76831055 -0.14172363zm6.840454 -0.40649414l0.7848511 0.22421265q-0.29211426 0.54989624 -1.0059204 0.9743042q-0.6956177 0.41189575 -1.5407715 0.25601196q-0.53778076 -0.09921265 -0.9380493 -0.4272461q-0.3848877 -0.32522583 -0.5303345 -0.82870483q-0.14544678 -0.5035095 -0.03491211 -1.1027527q0.14453125 -0.7836609 0.63116455 -1.4406738q0.50476074 -0.66952515 1.1384888 -0.9180603q0.6365967 -0.26391602 1.3126831 -0.13919067q0.8450928 0.15588379 1.2529907 0.78723145q0.41070557 0.6159668 0.24066162 1.5379028q-0.06237793 0.3380432 -0.1918335 0.6954956l-3.503418 -0.64624023q-0.040893555 0.13546753 -0.0635376 0.25839233q-0.12188721 0.66070557 0.12023926 1.0708313q0.24212646 0.4100952 0.68774414 0.49227905q0.41485596 0.076538086 0.8654175 -0.12634277q0.46588135 -0.20007324 0.77453613 -0.66744995zm-2.1327515 -1.6168213l2.673645 0.49316406q0.022705078 -0.122924805 0.033996582 -0.1843872q0.11053467 -0.5992737 -0.13726807 -0.9786377q-0.2477417 -0.379364 -0.7241211 -0.46722412q-0.5223999 -0.09637451 -1.0178223 0.17767334q-0.48010254 0.276886 -0.8284302 0.9594116zm6.7680664 3.536377q-0.49542236 0.27404785 -0.9260864 0.36938477q-0.41534424 0.09817505 -0.84558105 0.018798828q-0.66070557 -0.12185669 -1.0047607 -0.58255005q-0.32867432 -0.4578247 -0.215271 -1.0724792q0.07366943 -0.39950562 0.3147583 -0.6727905q0.24108887 -0.27331543 0.5670166 -0.4038391q0.3413086 -0.12771606 0.7857666 -0.1251831q0.28790283 -0.010437012 1.0465088 0.097717285q0.7739258 0.11099243 1.1346436 0.05041504q0.15454102 -0.32104492 0.19421387 -0.53616333q0.05102539 -0.2765808 -0.11755371 -0.4824524q-0.2522583 -0.26898193 -0.79003906 -0.36819458q-0.5070801 -0.09353638 -0.87231445 0.07745361q-0.3623047 0.15557861 -0.5925293 0.54211426l-0.8001709 -0.22705078q0.3762207 -0.6614685 0.9819946 -0.9310608q0.62402344 -0.2821045 1.4537964 -0.12902832q0.8758545 0.16156006 1.3189087 0.6881714q0.32751465 0.37817383 0.23394775 0.8852234q-0.07086182 0.38415527 -0.269104 0.85601807l-0.47943115 1.1349792q-0.2277832 0.5458679 -0.29296875 0.899292q-0.042541504 0.23046875 -0.026855469 0.6623535l-0.8143921 -0.15020752q-0.034301758 -0.24465942 0.01550293 -0.60092163zm0.6292114 -1.7746582q-0.1831665 0.04562378 -0.38861084 0.039520264q-0.19006348 -0.0032653809 -0.6595459 -0.04220581q-0.71813965 -0.06893921 -1.0270996 -0.030578613q-0.30895996 0.038330078 -0.50231934 0.22512817q-0.17791748 0.18960571 -0.2232666 0.43545532q-0.06518555 0.35342407 0.12561035 0.61105347q0.1907959 0.2576294 0.6364136 0.33981323q0.3994751 0.07369995 0.8079834 -0.073394775q0.40844727 -0.14709473 0.69158936 -0.4761963q0.2859497 -0.3444519 0.5392456 -1.028595zm1.1534424 2.7072754l1.8619995 -4.5820007l0.8143921 0.15020752l-0.31359863 0.7524719q0.5545044 -0.4220276 0.94195557 -0.54122925q0.3902588 -0.13458252 0.80511475 -0.058044434q0.44561768 0.082214355 0.6921997 0.38189697q0.26483154 0.28720093 0.28051758 0.7190552q0.4356079 -0.3804016 0.87475586 -0.52182007q0.45739746 -0.15396118 0.90301514 -0.071777344q0.58392334 0.10769653 0.8220215 0.45352173q0.25628662 0.33325195 0.16271973 0.84033203q-0.04248047 0.23049927 -0.24359131 0.7177124l-1.1939697 2.9415894l-0.8143921 -0.15020752l1.2263794 -3.0309448q0.1630249 -0.36715698 0.19140625 -0.520813q0.04534912 -0.24584961 -0.08569336 -0.39712524q-0.11273193 -0.16378784 -0.38934326 -0.21481323q-0.35339355 -0.06518555 -0.7772217 0.079071045q-0.40844727 0.14709473 -0.69158936 0.4761963q-0.2649536 0.31655884 -0.5700073 1.0229492l-0.90148926 2.2170105l-0.8143921 -0.15023804l1.2684326 -3.086731q0.13635254 -0.3085022 0.16186523 -0.44680786q0.042541504 -0.23046875 -0.085632324 -0.39712524q-0.10992432 -0.1791687 -0.35577393 -0.22451782q-0.33807373 -0.062347412 -0.76190186 0.08190918q-0.40844727 0.14709473 -0.7279663 0.5012512q-0.3013916 0.3416443 -0.59106445 1.0508423l-0.8901367 2.155548l-0.79901123 -0.14736938z" fill-rule="nonzero"></path><path fill="#000000" fill-opacity="0.0" d="m32.72441 46.721786l894.55115 0l0 60.125984l-894.55115 0z" fill-rule="evenodd"></path><path fill="#000000" d="m44.458786 91.56178l0 -26.71875l3.53125 0l0 23.5625l13.15625 0l0 3.15625l-16.6875 0zm19.260132 -9.671875q0 -5.390625 3.0 -7.96875q2.484375 -2.15625 6.078125 -2.15625q4.0 0 6.53125 2.625q2.53125 2.609375 2.53125 7.21875q0 3.734375 -1.125 5.875q-1.109375 2.140625 -3.265625 3.328125q-2.140625 1.1875 -4.671875 1.1875q-4.0625 0 -6.578125 -2.609375q-2.5 -2.609375 -2.5 -7.5zm3.375 0q0 3.71875 1.625 5.5625q1.625 1.84375 4.078125 1.84375q2.453125 0 4.0625 -1.859375q1.625 -1.859375 1.625 -5.65625q0 -3.59375 -1.640625 -5.4375q-1.625 -1.859375 -4.046875 -1.859375q-2.453125 0 -4.078125 1.84375q-1.625 1.84375 -1.625 5.5625zm18.010132 11.28125l3.1875 0.46875q0.203125 1.46875 1.109375 2.15625q1.21875 0.90625 3.34375 0.90625q2.28125 0 3.515625 -0.921875q1.234375 -0.90625 1.671875 -2.546875q0.265625 -1.0 0.234375 -4.203125q-2.140625 2.53125 -5.359375 2.53125q-3.984375 0 -6.171875 -2.875q-2.1875 -2.890625 -2.1875 -6.90625q0 -2.78125 1.0 -5.125q1.0 -2.34375 2.90625 -3.609375q1.90625 -1.28125 4.484375 -1.28125q3.421875 0 5.640625 2.765625l0 -2.328125l3.03125 0l0 16.734375q0 4.515625 -0.921875 6.40625q-0.921875 1.890625 -2.921875 2.984375q-1.984375 1.09375 -4.90625 1.09375q-3.46875 0 -5.609375 -1.5625q-2.125 -1.5625 -2.046875 -4.6875zm2.71875 -11.640625q0 3.8125 1.5 5.5625q1.515625 1.75 3.796875 1.75q2.265625 0 3.796875 -1.734375q1.53125 -1.75 1.53125 -5.46875q0 -3.546875 -1.578125 -5.34375q-1.578125 -1.8125 -3.796875 -1.8125q-2.1875 0 -3.71875 1.78125q-1.53125 1.765625 -1.53125 5.265625zm17.322632 4.25l3.25 -0.5q0.28125 1.9375 1.515625 2.984375q1.25 1.03125 3.5 1.03125q2.265625 0 3.359375 -0.90625q1.09375 -0.921875 1.09375 -2.171875q0 -1.109375 -0.96875 -1.75q-0.671875 -0.4375 -3.359375 -1.109375q-3.609375 -0.90625 -5.0 -1.5625q-1.390625 -0.671875 -2.125 -1.84375q-0.71875 -1.1875 -0.71875 -2.609375q0 -1.296875 0.59375 -2.390625q0.59375 -1.109375 1.625 -1.84375q0.765625 -0.5625 2.078125 -0.953125q1.328125 -0.390625 2.84375 -0.390625q2.265625 0 3.984375 0.65625q1.734375 0.65625 2.546875 1.78125q0.828125 1.125 1.140625 3.0l-3.21875 0.4375q-0.21875 -1.5 -1.265625 -2.328125q-1.046875 -0.84375 -2.953125 -0.84375q-2.265625 0 -3.234375 0.75q-0.96875 0.734375 -0.96875 1.75q0 0.625 0.40625 1.140625q0.40625 0.53125 1.265625 0.875q0.484375 0.1875 2.890625 0.84375q3.484375 0.921875 4.859375 1.515625q1.375 0.59375 2.15625 1.734375q0.78125 1.125 0.78125 2.796875q0 1.640625 -0.953125 3.09375q-0.953125 1.453125 -2.765625 2.25q-1.796875 0.78125 -4.078125 0.78125q-3.765625 0 -5.75 -1.5625q-1.984375 -1.578125 -2.53125 -4.65625zm42.988144 3.390625q-1.828125 1.546875 -3.515625 2.1875q-1.6875 0.640625 -3.609375 0.640625q-3.1875 0 -4.90625 -1.546875q-1.71875 -1.5625 -1.71875 -4.0q0 -1.421875 0.640625 -2.59375q0.65625 -1.171875 1.703125 -1.875q1.046875 -0.71875 2.359375 -1.078125q0.96875 -0.265625 2.921875 -0.5q3.96875 -0.46875 5.84375 -1.125q0.03125 -0.671875 0.03125 -0.859375q0 -2.0 -0.9375 -2.828125q-1.25 -1.109375 -3.734375 -1.109375q-2.3125 0 -3.421875 0.8125q-1.09375 0.8125 -1.625 2.875l-3.21875 -0.4375q0.4375 -2.0625 1.4375 -3.328125q1.015625 -1.265625 2.90625 -1.953125q1.890625 -0.6875 4.390625 -0.6875q2.484375 0 4.03125 0.59375q1.546875 0.578125 2.28125 1.46875q0.734375 0.875 1.015625 2.21875q0.171875 0.84375 0.171875 3.03125l0 4.375q0 4.578125 0.203125 5.796875q0.21875 1.203125 0.828125 2.3125l-3.421875 0q-0.515625 -1.015625 -0.65625 -2.390625zm-0.28125 -7.328125q-1.78125 0.734375 -5.359375 1.25q-2.015625 0.28125 -2.859375 0.65625q-0.828125 0.359375 -1.296875 1.0625q-0.453125 0.703125 -0.453125 1.5625q0 1.3125 0.984375 2.1875q1.0 0.875 2.921875 0.875q1.890625 0 3.359375 -0.828125q1.484375 -0.84375 2.1875 -2.28125q0.515625 -1.109375 0.515625 -3.28125l0 -1.203125zm8.369507 9.71875l0 -19.359375l2.953125 0l0 2.9375q1.125 -2.0625 2.078125 -2.71875q0.96875 -0.65625 2.109375 -0.65625q1.671875 0 3.375 1.0625l-1.125 3.046875q-1.203125 -0.71875 -2.40625 -0.71875q-1.078125 0 -1.9375 0.65625q-0.859375 0.640625 -1.21875 1.78125q-0.546875 1.75 -0.546875 3.828125l0 10.140625l-3.28125 0zm25.727432 -6.234375l3.375 0.421875q-0.796875 2.96875 -2.96875 4.609375q-2.15625 1.640625 -5.53125 1.640625q-4.25 0 -6.75 -2.609375q-2.484375 -2.625 -2.484375 -7.34375q0 -4.890625 2.515625 -7.578125q2.515625 -2.703125 6.53125 -2.703125q3.890625 0 6.34375 2.640625q2.453125 2.640625 2.453125 7.4375q0 0.296875 -0.015625 0.875l-14.4375 0q0.1875 3.1875 1.8125 4.890625q1.625 1.6875 4.046875 1.6875q1.796875 0 3.078125 -0.9375q1.28125 -0.953125 2.03125 -3.03125zm-10.78125 -5.296875l10.8125 0q-0.21875 -2.453125 -1.234375 -3.671875q-1.578125 -1.890625 -4.078125 -1.890625q-2.25 0 -3.796875 1.515625q-1.53125 1.5 -1.703125 4.046875zm29.443588 11.53125l0 -16.8125l-2.90625 0l0 -2.546875l2.90625 0l0 -2.0625q0 -1.9375 0.34375 -2.890625q0.46875 -1.28125 1.65625 -2.0625q1.203125 -0.796875 3.359375 -0.796875q1.375 0 3.0625 0.328125l-0.5 2.859375q-1.015625 -0.1875 -1.9375 -0.1875q-1.484375 0 -2.109375 0.640625q-0.625 0.640625 -0.625 2.390625l0 1.78125l3.78125 0l0 2.546875l-3.78125 0l0 16.8125l-3.25 0zm9.511581 0l0 -26.71875l3.28125 0l0 26.71875l-3.28125 0zm7.1368713 -9.671875q0 -5.390625 3.0 -7.96875q2.484375 -2.15625 6.078125 -2.15625q4.0 0 6.53125 2.625q2.53125 2.609375 2.53125 7.21875q0 3.734375 -1.125 5.875q-1.109375 2.140625 -3.265625 3.328125q-2.140625 1.1875 -4.671875 1.1875q-4.0625 0 -6.578125 -2.609375q-2.5 -2.609375 -2.5 -7.5zm3.375 0q0 3.71875 1.625 5.5625q1.625 1.84375 4.078125 1.84375q2.453125 0 4.0625 -1.859375q1.625 -1.859375 1.625 -5.65625q0 -3.59375 -1.640625 -5.4375q-1.625 -1.859375 -4.046875 -1.859375q-2.453125 0 -4.078125 1.84375q-1.625 1.84375 -1.625 5.5625zm22.182007 9.671875l-5.921875 -19.359375l3.390625 0l3.078125 11.171875l1.15625 4.15625q0.0625 -0.3125 1.0 -3.984375l3.078125 -11.34375l3.375 0l2.890625 11.234375l0.96875 3.703125l1.1093597 -3.75l3.3125 -11.1875l3.203125 0l-6.0625 19.359375l-3.4062347 0l-3.078125 -11.59375l-0.75 -3.296875l-3.921875 14.890625l-3.421875 0zm23.410294 -22.953125l0 -3.765625l3.28125 0l0 3.765625l-3.28125 0zm0 22.953125l0 -19.359375l3.28125 0l0 19.359375l-3.28125 0zm8.261871 0l0 -19.359375l2.953125 0l0 2.75q2.140625 -3.1875 6.171875 -3.1875q1.75 0 3.21875 0.640625q1.46875 0.625 2.1875 1.640625q0.734375 1.015625 1.03125 2.421875q0.171875 0.90625 0.171875 3.1875l0 11.90625l-3.28125 0l0 -11.78125q0 -2.0 -0.390625 -2.984375q-0.375 -1.0 -1.359375 -1.59375q-0.96875 -0.59375 -2.28125 -0.59375q-2.09375 0 -3.625 1.328125q-1.515625 1.328125 -1.515625 5.046875l0 10.578125l-3.28125 0zm20.166382 1.609375l3.1875 0.46875q0.203125 1.46875 1.109375 2.15625q1.21875 0.90625 3.34375 0.90625q2.28125 0 3.515625 -0.921875q1.234375 -0.90625 1.671875 -2.546875q0.265625 -1.0 0.234375 -4.203125q-2.140625 2.53125 -5.359375 2.53125q-3.984375 0 -6.171875 -2.875q-2.1875 -2.890625 -2.1875 -6.90625q0 -2.78125 1.0 -5.125q1.0 -2.34375 2.90625 -3.609375q1.90625 -1.28125 4.484375 -1.28125q3.421875 0 5.640625 2.765625l0 -2.328125l3.03125 0l0 16.734375q0 4.515625 -0.921875 6.40625q-0.921875 1.890625 -2.921875 2.984375q-1.984375 1.09375 -4.90625 1.09375q-3.46875 0 -5.609375 -1.5625q-2.125 -1.5625 -2.046875 -4.6875zm2.71875 -11.640625q0 3.8125 1.5 5.5625q1.515625 1.75 3.796875 1.75q2.265625 0 3.796875 -1.734375q1.53125 -1.75 1.53125 -5.46875q0 -3.546875 -1.578125 -5.34375q-1.578125 -1.8125 -3.796875 -1.8125q-2.1875 0 -3.71875 1.78125q-1.53125 1.765625 -1.53125 5.265625zm36.17798 7.09375l0.46875 2.90625q-1.375 0.28125 -2.46875 0.28125q-1.796875 0 -2.78125 -0.5625q-0.984375 -0.5625 -1.390625 -1.484375q-0.390625 -0.921875 -0.390625 -3.875l0 -11.140625l-2.40625 0l0 -2.546875l2.40625 0l0 -4.796875l3.265625 -1.96875l0 6.765625l3.296875 0l0 2.546875l-3.296875 0l0 11.328125q0 1.40625 0.171875 1.8125q0.171875 0.390625 0.5625 0.625q0.390625 0.234375 1.125 0.234375q0.546875 0 1.4375 -0.125zm3.1990967 2.9375l0 -26.71875l3.28125 0l0 9.578125q2.296875 -2.65625 5.796875 -2.65625q2.15625 0 3.734375 0.859375q1.59375 0.84375 2.28125 2.34375q0.6875 1.484375 0.6875 4.328125l0 12.265625l-3.28125 0l0 -12.265625q0 -2.46875 -1.078125 -3.578125q-1.0625 -1.125 -3.015625 -1.125q-1.453125 0 -2.75 0.765625q-1.28125 0.75 -1.828125 2.046875q-0.546875 1.28125 -0.546875 3.5625l0 10.59375l-3.28125 0zm20.728882 0l0 -19.359375l2.953125 0l0 2.9375q1.125 -2.0625 2.078125 -2.71875q0.96875 -0.65625 2.109375 -0.65625q1.671875 0 3.375 1.0625l-1.125 3.046875q-1.203125 -0.71875 -2.40625 -0.71875q-1.078125 0 -1.9375 0.65625q-0.859375 0.640625 -1.21875 1.78125q-0.546875 1.75 -0.546875 3.828125l0 10.140625l-3.28125 0zm11.243042 -9.671875q0 -5.390625 3.0 -7.96875q2.484375 -2.15625 6.078125 -2.15625q4.0 0 6.53125 2.625q2.53125 2.609375 2.53125 7.21875q0 3.734375 -1.125 5.875q-1.109375 2.140625 -3.265625 3.328125q-2.140625 1.1875 -4.671875 1.1875q-4.0625 0 -6.578125 -2.609375q-2.5 -2.609375 -2.5 -7.5zm3.375 0q0 3.71875 1.625 5.5625q1.625 1.84375 4.078125 1.84375q2.453125 0 4.0625 -1.859375q1.625 -1.859375 1.625 -5.65625q0 -3.59375 -1.640625 -5.4375q-1.625 -1.859375 -4.046875 -1.859375q-2.453125 0 -4.078125 1.84375q-1.625 1.84375 -1.625 5.5625zm31.291382 9.671875l0 -2.84375q-2.25 3.28125 -6.140625 3.28125q-1.703125 0 -3.203125 -0.65625q-1.484375 -0.65625 -2.203125 -1.640625q-0.71875 -1.0 -1.0 -2.4375q-0.203125 -0.96875 -0.203125 -3.0625l0 -12.0l3.28125 0l0 10.734375q0 2.578125 0.203125 3.46875q0.296875 1.296875 1.296875 2.03125q1.015625 0.734375 2.484375 0.734375q1.484375 0 2.765625 -0.75q1.296875 -0.765625 1.828125 -2.0625q0.546875 -1.296875 0.546875 -3.78125l0 -10.375l3.28125 0l0 19.359375l-2.9375 0zm7.478882 1.609375l3.1875 0.46875q0.203125 1.46875 1.109375 2.15625q1.21875 0.90625 3.34375 0.90625q2.28125 0 3.515625 -0.921875q1.234375 -0.90625 1.671875 -2.546875q0.265625 -1.0 0.234375 -4.203125q-2.140625 2.53125 -5.359375 2.53125q-3.984375 0 -6.171875 -2.875q-2.1875 -2.890625 -2.1875 -6.90625q0 -2.78125 1.0 -5.125q1.0 -2.34375 2.90625 -3.609375q1.90625 -1.28125 4.484375 -1.28125q3.421875 0 5.640625 2.765625l0 -2.328125l3.03125 0l0 16.734375q0 4.515625 -0.921875 6.40625q-0.921875 1.890625 -2.921875 2.984375q-1.984375 1.09375 -4.90625 1.09375q-3.46875 0 -5.609375 -1.5625q-2.125 -1.5625 -2.046875 -4.6875zm2.71875 -11.640625q0 3.8125 1.5 5.5625q1.515625 1.75 3.796875 1.75q2.265625 0 3.796875 -1.734375q1.53125 -1.75 1.53125 -5.46875q0 -3.546875 -1.578125 -5.34375q-1.578125 -1.8125 -3.796875 -1.8125q-2.1875 0 -3.71875 1.78125q-1.53125 1.765625 -1.53125 5.265625zm18.635132 10.03125l0 -26.71875l3.28125 0l0 9.578125q2.296875 -2.65625 5.796875 -2.65625q2.15625 0 3.734375 0.859375q1.59375 0.84375 2.28125 2.34375q0.6875 1.484375 0.6875 4.328125l0 12.265625l-3.28125 0l0 -12.265625q0 -2.46875 -1.078125 -3.578125q-1.0625 -1.125 -3.015625 -1.125q-1.453125 0 -2.75 0.765625q-1.28125 0.75 -1.828125 2.046875q-0.546875 1.28125 -0.546875 3.5625l0 10.59375l-3.28125 0zm31.615479 0l0 -26.71875l11.84375 0q3.578125 0 5.4375 0.71875q1.859375 0.71875 2.96875 2.546875q1.109375 1.8125 1.109375 4.03125q0 2.828125 -1.84375 4.78125q-1.84375 1.953125 -5.6875 2.484375q1.40625 0.671875 2.140625 1.328125q1.546875 1.421875 2.921875 3.5625l4.65625 7.265625l-4.453125 0l-3.53125 -5.5625q-1.546875 -2.40625 -2.546875 -3.671875q-1.0 -1.28125 -1.796875 -1.78125q-0.796875 -0.515625 -1.609375 -0.71875q-0.609375 -0.125 -1.96875 -0.125l-4.109375 0l0 11.859375l-3.53125 0zm3.53125 -14.921875l7.609375 0q2.421875 0 3.78125 -0.5q1.375 -0.515625 2.078125 -1.609375q0.71875 -1.109375 0.71875 -2.390625q0 -1.90625 -1.375 -3.125q-1.375 -1.21875 -4.359375 -1.21875l-8.453125 0l0 8.84375zm36.207184 8.6875l3.375 0.421875q-0.796875 2.96875 -2.96875 4.609375q-2.15625 1.640625 -5.53125 1.640625q-4.25 0 -6.75 -2.609375q-2.484375 -2.625 -2.484375 -7.34375q0 -4.890625 2.515625 -7.578125q2.515625 -2.703125 6.53125 -2.703125q3.890625 0 6.34375 2.640625q2.453125 2.640625 2.453125 7.4375q0 0.296875 -0.015625 0.875l-14.4375 0q0.1875 3.1875 1.8125 4.890625q1.625 1.6875 4.046875 1.6875q1.796875 0 3.078125 -0.9375q1.28125 -0.953125 2.03125 -3.03125zm-10.78125 -5.296875l10.8125 0q-0.21875 -2.453125 -1.234375 -3.671875q-1.578125 -1.890625 -4.078125 -1.890625q-2.25 0 -3.796875 1.515625q-1.53125 1.5 -1.703125 4.046875zm30.916382 4.4375l3.21875 0.421875q-0.515625 3.34375 -2.703125 5.234375q-2.171875 1.875 -5.34375 1.875q-3.984375 0 -6.40625 -2.59375q-2.40625 -2.59375 -2.40625 -7.453125q0 -3.125 1.03125 -5.46875q1.046875 -2.359375 3.171875 -3.53125q2.125 -1.1875 4.625 -1.1875q3.15625 0 5.15625 1.59375q2.0 1.59375 2.578125 4.53125l-3.203125 0.5q-0.453125 -1.953125 -1.609375 -2.9375q-1.15625 -0.984375 -2.796875 -0.984375q-2.484375 0 -4.03125 1.78125q-1.546875 1.765625 -1.546875 5.609375q0 3.90625 1.484375 5.671875q1.5 1.765625 3.90625 1.765625q1.9375 0 3.234375 -1.171875q1.296875 -1.1875 1.640625 -3.65625zm19.289062 0.859375l3.375061 0.421875q-0.796875 2.96875 -2.968811 4.609375q-2.15625 1.640625 -5.53125 1.640625q-4.25 0 -6.75 -2.609375q-2.484375 -2.625 -2.484375 -7.34375q0 -4.890625 2.515625 -7.578125q2.515625 -2.703125 6.53125 -2.703125q3.890625 0 6.34375 2.640625q2.453186 2.640625 2.453186 7.4375q0 0.296875 -0.015625 0.875l-14.437561 0q0.1875 3.1875 1.8125 4.890625q1.625 1.6875 4.046875 1.6875q1.796875 0 3.078125 -0.9375q1.28125 -0.953125 2.03125 -3.03125zm-10.78125 -5.296875l10.8125 0q-0.21875 -2.453125 -1.234375 -3.671875q-1.578125 -1.890625 -4.078125 -1.890625q-2.25 0 -3.796875 1.515625q-1.53125 1.5 -1.703125 4.046875zm18.307068 -11.421875l0 -3.765625l3.28125 0l0 3.765625l-3.28125 0zm0 22.953125l0 -19.359375l3.28125 0l0 19.359375l-3.28125 0zm13.652466 0l-7.375 -19.359375l3.46875 0l4.15625 11.59375q0.671875 1.875 1.234375 3.90625q0.4375 -1.53125 1.21875 -3.6875l4.3125 -11.8125l3.375 0l-7.328125 19.359375l-3.0625 0zm26.539062 -6.234375l3.375 0.421875q-0.796875 2.96875 -2.96875 4.609375q-2.15625 1.640625 -5.53125 1.640625q-4.25 0 -6.75 -2.609375q-2.484375 -2.625 -2.484375 -7.34375q0 -4.890625 2.515625 -7.578125q2.515625 -2.703125 6.53125 -2.703125q3.890625 0 6.34375 2.640625q2.453125 2.640625 2.453125 7.4375q0 0.296875 -0.015625 0.875l-14.4375 0q0.1875 3.1875 1.8125 4.890625q1.625 1.6875 4.046875 1.6875q1.796875 0 3.078125 -0.9375q1.28125 -0.953125 2.03125 -3.03125zm-10.78125 -5.296875l10.8125 0q-0.21875 -2.453125 -1.234375 -3.671875q-1.578125 -1.890625 -4.078125 -1.890625q-2.25 0 -3.796875 1.515625q-1.53125 1.5 -1.703125 4.046875zm18.244507 11.53125l0 -19.359375l2.953125 0l0 2.9375q1.125 -2.0625 2.078125 -2.71875q0.96875 -0.65625 2.109375 -0.65625q1.671875 0 3.375 1.0625l-1.125 3.046875q-1.203125 -0.71875 -2.40625 -0.71875q-1.078125 0 -1.9375 0.65625q-0.859375 0.640625 -1.21875 1.78125q-0.546875 1.75 -0.546875 3.828125l0 10.140625l-3.28125 0zm35.47339 -2.390625q-1.828125 1.546875 -3.515625 2.1875q-1.6875 0.640625 -3.609375 0.640625q-3.1875 0 -4.90625 -1.546875q-1.71875 -1.5625 -1.71875 -4.0q0 -1.421875 0.640625 -2.59375q0.65625 -1.171875 1.703125 -1.875q1.046875 -0.71875 2.359375 -1.078125q0.96875 -0.265625 2.921875 -0.5q3.96875 -0.46875 5.84375 -1.125q0.03125 -0.671875 0.03125 -0.859375q0 -2.0 -0.9375 -2.828125q-1.25 -1.109375 -3.734375 -1.109375q-2.3125 0 -3.421875 0.8125q-1.09375 0.8125 -1.625 2.875l-3.21875 -0.4375q0.4375 -2.0625 1.4375 -3.328125q1.015625 -1.265625 2.90625 -1.953125q1.890625 -0.6875 4.390625 -0.6875q2.484375 0 4.03125 0.59375q1.546875 0.578125 2.28125 1.46875q0.734375 0.875 1.015625 2.21875q0.171875 0.84375 0.171875 3.03125l0 4.375q0 4.578125 0.203125 5.796875q0.21875 1.203125 0.828125 2.3125l-3.421875 0q-0.515625 -1.015625 -0.65625 -2.390625zm-0.28125 -7.328125q-1.78125 0.734375 -5.359375 1.25q-2.015625 0.28125 -2.859375 0.65625q-0.828125 0.359375 -1.296875 1.0625q-0.453125 0.703125 -0.453125 1.5625q0 1.3125 0.984375 2.1875q1.0 0.875 2.921875 0.875q1.890625 0 3.359375 -0.828125q1.484375 -0.84375 2.1875 -2.28125q0.515625 -1.109375 0.515625 -3.28125l0 -1.203125zm8.400757 9.71875l0 -19.359375l2.953125 0l0 2.75q2.140625 -3.1875 6.171875 -3.1875q1.75 0 3.21875 0.640625q1.46875 0.625 2.1875 1.640625q0.734375 1.015625 1.03125 2.421875q0.171875 0.90625 0.171875 3.1875l0 11.90625l-3.28125 0l0 -11.78125q0 -2.0 -0.390625 -2.984375q-0.375 -1.0 -1.359375 -1.59375q-0.96875 -0.59375 -2.28125 -0.59375q-2.09375 0 -3.625 1.328125q-1.515625 1.328125 -1.515625 5.046875l0 10.578125l-3.28125 0zm33.32263 0l0 -2.4375q-1.84375 2.875 -5.40625 2.875q-2.3125 0 -4.265625 -1.265625q-1.9375 -1.28125 -3.0 -3.5625q-1.0625 -2.296875 -1.0625 -5.265625q0 -2.90625 0.953125 -5.265625q0.96875 -2.359375 2.90625 -3.609375q1.9375 -1.265625 4.3125 -1.265625q1.75 0 3.109375 0.75q1.375 0.734375 2.234375 1.90625l0 -9.578125l3.265625 0l0 26.71875l-3.046875 0zm-10.375 -9.65625q0 3.71875 1.5625 5.5625q1.578125 1.828125 3.71875 1.828125q2.140625 0 3.640625 -1.75q1.515625 -1.765625 1.515625 -5.375q0 -3.96875 -1.53125 -5.828125q-1.53125 -1.859375 -3.78125 -1.859375q-2.1875 0 -3.65625 1.796875q-1.46875 1.78125 -1.46875 5.625zm29.552979 9.65625l0 -26.71875l18.03125 0l0 3.15625l-14.5 0l0 8.265625l12.546875 0l0 3.15625l-12.546875 0l0 12.140625l-3.53125 0zm20.973389 -9.671875q0 -5.390625 3.0 -7.96875q2.484375 -2.15625 6.078125 -2.15625q4.0 0 6.53125 2.625q2.53125 2.609375 2.53125 7.21875q0 3.734375 -1.125 5.875q-1.109375 2.140625 -3.265625 3.328125q-2.140625 1.1875 -4.671875 1.1875q-4.0625 0 -6.578125 -2.609375q-2.5 -2.609375 -2.5 -7.5zm3.375 0q0 3.71875 1.625 5.5625q1.625 1.84375 4.078125 1.84375q2.453125 0 4.0625 -1.859375q1.625 -1.859375 1.625 -5.65625q0 -3.59375 -1.640625 -5.4375q-1.625 -1.859375 -4.046875 -1.859375q-2.453125 0 -4.078125 1.84375q-1.625 1.84375 -1.625 5.5625zm18.572632 9.671875l0 -19.359375l2.953125 0l0 2.9375q1.125 -2.0625 2.078125 -2.71875q0.96875 -0.65625 2.109375 -0.65625q1.671875 0 3.375 1.0625l-1.125 3.046875q-1.203125 -0.71875 -2.40625 -0.71875q-1.078125 0 -1.9375 0.65625q-0.859375 0.640625 -1.21875 1.78125q-0.546875 1.75 -0.546875 3.828125l0 10.140625l-3.28125 0zm16.039917 0l-5.921875 -19.359375l3.390625 0l3.078125 11.171875l1.15625 4.15625q0.0625 -0.3125 1.0 -3.984375l3.078125 -11.34375l3.375 0l2.890625 11.234375l0.96875 3.703125l1.109375 -3.75l3.3125 -11.1875l3.203125 0l-6.0625 19.359375l-3.40625 0l-3.078125 -11.59375l-0.75 -3.296875l-3.921875 14.890625l-3.421875 0zm36.019653 -2.390625q-1.828125 1.546875 -3.515625 2.1875q-1.6875 0.640625 -3.609375 0.640625q-3.1875 0 -4.90625 -1.546875q-1.71875 -1.5625 -1.71875 -4.0q0 -1.421875 0.640625 -2.59375q0.65625 -1.171875 1.703125 -1.875q1.046875 -0.71875 2.359375 -1.078125q0.96875 -0.265625 2.921875 -0.5q3.96875 -0.46875 5.84375 -1.125q0.03125 -0.671875 0.03125 -0.859375q0 -2.0 -0.9375 -2.828125q-1.25 -1.109375 -3.734375 -1.109375q-2.3125 0 -3.421875 0.8125q-1.09375 0.8125 -1.625 2.875l-3.21875 -0.4375q0.4375 -2.0625 1.4375 -3.328125q1.015625 -1.265625 2.90625 -1.953125q1.890625 -0.6875 4.390625 -0.6875q2.484375 0 4.03125 0.59375q1.546875 0.578125 2.28125 1.46875q0.734375 0.875 1.015625 2.21875q0.171875 0.84375 0.171875 3.03125l0 4.375q0 4.578125 0.203125 5.796875q0.21875 1.203125 0.828125 2.3125l-3.421875 0q-0.515625 -1.015625 -0.65625 -2.390625zm-0.28125 -7.328125q-1.78125 0.734375 -5.359375 1.25q-2.015625 0.28125 -2.859375 0.65625q-0.828125 0.359375 -1.296875 1.0625q-0.453125 0.703125 -0.453125 1.5625q0 1.3125 0.984375 2.1875q1.0 0.875 2.921875 0.875q1.890625 0 3.359375 -0.828125q1.484375 -0.84375 2.1875 -2.28125q0.515625 -1.109375 0.515625 -3.28125l0 -1.203125zm8.369507 9.71875l0 -19.359375l2.953125 0l0 2.9375q1.125 -2.0625 2.078125 -2.71875q0.96875 -0.65625 2.109375 -0.65625q1.671875 0 3.375 1.0625l-1.125 3.046875q-1.203125 -0.71875 -2.40625 -0.71875q-1.078125 0 -1.9375 0.65625q-0.859375 0.640625 -1.21875 1.78125q-0.546875 1.75 -0.546875 3.828125l0 10.140625l-3.28125 0zm25.024292 0l0 -2.4375q-1.84375 2.875 -5.40625 2.875q-2.3125 0 -4.265625 -1.265625q-1.9375 -1.28125 -3.0 -3.5625q-1.0625 -2.296875 -1.0625 -5.265625q0 -2.90625 0.953125 -5.265625q0.96875 -2.359375 2.90625 -3.609375q1.9375 -1.265625 4.3125 -1.265625q1.75 0 3.109375 0.75q1.375 0.734375 2.234375 1.90625l0 -9.578125l3.265625 0l0 26.71875l-3.046875 0zm-10.375 -9.65625q0 3.71875 1.5625 5.5625q1.578125 1.828125 3.71875 1.828125q2.140625 0 3.640625 -1.75q1.515625 -1.765625 1.515625 -5.375q0 -3.96875 -1.53125 -5.828125q-1.53125 -1.859375 -3.78125 -1.859375q-2.1875 0 -3.65625 1.796875q-1.46875 1.78125 -1.46875 5.625zm31.838257 3.421875l3.375 0.421875q-0.796875 2.96875 -2.96875 4.609375q-2.15625 1.640625 -5.53125 1.640625q-4.25 0 -6.75 -2.609375q-2.484375 -2.625 -2.484375 -7.34375q0 -4.890625 2.515625 -7.578125q2.515625 -2.703125 6.53125 -2.703125q3.890625 0 6.34375 2.640625q2.453125 2.640625 2.453125 7.4375q0 0.296875 -0.015625 0.875l-14.4375 0q0.1875 3.1875 1.8125 4.890625q1.625 1.6875 4.046875 1.6875q1.796875 0 3.078125 -0.9375q1.28125 -0.953125 2.03125 -3.03125zm-10.78125 -5.296875l10.8125 0q-0.21875 -2.453125 -1.234375 -3.671875q-1.578125 -1.890625 -4.078125 -1.890625q-2.25 0 -3.796875 1.515625q-1.53125 1.5 -1.703125 4.046875zm18.244507 11.53125l0 -19.359375l2.953125 0l0 2.9375q1.125 -2.0625 2.078125 -2.71875q0.96875 -0.65625 2.109375 -0.65625q1.671875 0 3.375 1.0625l-1.125 3.046875q-1.203125 -0.71875 -2.40625 -0.71875q-1.078125 0 -1.9375 0.65625q-0.859375 0.640625 -1.21875 1.78125q-0.546875 1.75 -0.546875 3.828125l0 10.140625l-3.28125 0z" fill-rule="nonzero"></path><path fill="#eeeeee" d="m678.6588 411.58466l0 0c0 4.7292175 19.212952 8.563019 42.91339 8.563019c23.700378 0 42.91333 -3.8338013 42.91333 -8.563019l0 51.37796c0 4.7292175 -19.212952 8.562988 -42.91333 8.562988c-23.70044 0 -42.91339 -3.8337708 -42.91339 -8.562988z" fill-rule="evenodd"></path><path fill="#f4f4f4" d="m678.6588 411.58466l0 0c0 -4.729187 19.212952 -8.562988 42.91339 -8.562988c23.700378 0 42.91333 3.8338013 42.91333 8.562988l0 0c0 4.7292175 -19.212952 8.563019 -42.91333 8.563019c-23.70044 0 -42.91339 -3.8338013 -42.91339 -8.563019z" fill-rule="evenodd"></path><path fill="#000000" fill-opacity="0.0" d="m764.48553 411.58466l0 0c0 4.7292175 -19.212952 8.563019 -42.91333 8.563019c-23.70044 0 -42.91339 -3.8338013 -42.91339 -8.563019l0 0c0 -4.729187 19.212952 -8.562988 42.91339 -8.562988c23.700378 0 42.91333 3.8338013 42.91333 8.562988l0 51.37796c0 4.7292175 -19.212952 8.562988 -42.91333 8.562988c-23.70044 0 -42.91339 -3.8337708 -42.91339 -8.562988l0 -51.37796" fill-rule="evenodd"></path><path stroke="#e06666" stroke-width="2.0" stroke-linejoin="round" stroke-linecap="butt" d="m764.48553 411.58466l0 0c0 4.7292175 -19.212952 8.563019 -42.91333 8.563019c-23.70044 0 -42.91339 -3.8338013 -42.91339 -8.563019l0 0c0 -4.729187 19.212952 -8.562988 42.91339 -8.562988c23.700378 0 42.91333 3.8338013 42.91333 8.562988l0 51.37796c0 4.7292175 -19.212952 8.562988 -42.91333 8.562988c-23.70044 0 -42.91339 -3.8337708 -42.91339 -8.562988l0 -51.37796" fill-rule="evenodd"></path><path fill="#000000" d="m706.2379 443.29263l1.203125 -0.109375q0.078125 0.71875 0.390625 1.1875q0.3125 0.453125 0.953125 0.734375q0.65625 0.28125 1.46875 0.28125q0.71875 0 1.265625 -0.21875q0.5625 -0.21875 0.828125 -0.578125q0.265625 -0.375 0.265625 -0.828125q0 -0.453125 -0.265625 -0.78125q-0.25 -0.328125 -0.84375 -0.5625q-0.390625 -0.15625 -1.703125 -0.46875q-1.3125 -0.3125 -1.84375 -0.59375q-0.671875 -0.359375 -1.015625 -0.890625q-0.328125 -0.53125 -0.328125 -1.1875q0 -0.71875 0.40625 -1.34375q0.40625 -0.625 1.1875 -0.953125q0.796875 -0.328125 1.765625 -0.328125q1.046875 0 1.859375 0.34375q0.8125 0.34375 1.25 1.015625q0.4375 0.65625 0.46875 1.484375l-1.203125 0.09375q-0.109375 -0.90625 -0.671875 -1.359375q-0.5625 -0.46875 -1.65625 -0.46875q-1.140625 0 -1.671875 0.421875q-0.515625 0.421875 -0.515625 1.015625q0 0.515625 0.359375 0.84375q0.375 0.328125 1.90625 0.6875q1.546875 0.34375 2.109375 0.59375q0.84375 0.390625 1.234375 0.984375q0.390625 0.578125 0.390625 1.359375q0 0.75 -0.4375 1.4375q-0.421875 0.671875 -1.25 1.046875q-0.8125 0.359375 -1.828125 0.359375q-1.296875 0 -2.171875 -0.375q-0.875 -0.375 -1.375 -1.125q-0.5 -0.765625 -0.53125 -1.71875zm11.733459 2.015625l0.171875 1.03125q-0.5 0.109375 -0.890625 0.109375q-0.640625 0 -1.0 -0.203125q-0.34375 -0.203125 -0.484375 -0.53125q-0.140625 -0.328125 -0.140625 -1.390625l0 -3.96875l-0.859375 0l0 -0.90625l0.859375 0l0 -1.71875l1.171875 -0.703125l0 2.421875l1.171875 0l0 0.90625l-1.171875 0l0 4.046875q0 0.5 0.046875 0.640625q0.0625 0.140625 0.203125 0.234375q0.140625 0.078125 0.40625 0.078125q0.203125 0 0.515625 -0.046875zm0.7030029 -2.40625q0 -1.921875 1.078125 -2.84375q0.890625 -0.765625 2.171875 -0.765625q1.421875 0 2.328125 0.9375q0.90625 0.921875 0.90625 2.578125q0 1.328125 -0.40625 2.09375q-0.390625 0.765625 -1.15625 1.1875q-0.765625 0.421875 -1.671875 0.421875q-1.453125 0 -2.359375 -0.921875q-0.890625 -0.9375 -0.890625 -2.6875zm1.203125 0q0 1.328125 0.578125 1.984375q0.59375 0.65625 1.46875 0.65625q0.875 0 1.453125 -0.65625q0.578125 -0.671875 0.578125 -2.03125q0 -1.28125 -0.59375 -1.9375q-0.578125 -0.65625 -1.4375 -0.65625q-0.875 0 -1.46875 0.65625q-0.578125 0.65625 -0.578125 1.984375zm6.6312256 3.453125l0 -6.90625l1.0625 0l0 1.046875q0.40625 -0.734375 0.734375 -0.96875q0.34375 -0.234375 0.765625 -0.234375q0.59375 0 1.203125 0.375l-0.40625 1.078125q-0.4375 -0.25 -0.859375 -0.25q-0.390625 0 -0.703125 0.234375q-0.296875 0.234375 -0.421875 0.640625q-0.203125 0.625 -0.203125 1.359375l0 3.625l-1.171875 0zm9.1883545 -2.21875l1.203125 0.140625q-0.28125 1.0625 -1.0625 1.65625q-0.765625 0.578125 -1.96875 0.578125q-1.515625 0 -2.40625 -0.9375q-0.890625 -0.9375 -0.890625 -2.609375q0 -1.75 0.890625 -2.703125q0.90625 -0.96875 2.34375 -0.96875q1.390625 0 2.265625 0.9375q0.875 0.9375 0.875 2.65625q0 0.109375 0 0.3125l-5.15625 0q0.0625 1.140625 0.640625 1.75q0.578125 0.59375 1.4375 0.59375q0.65625 0 1.109375 -0.328125q0.453125 -0.34375 0.71875 -1.078125zm-3.84375 -1.90625l3.859375 0q-0.078125 -0.859375 -0.4375 -1.296875q-0.5625 -0.6875 -1.453125 -0.6875q-0.8125 0 -1.359375 0.546875q-0.546875 0.53125 -0.609375 1.4375z" fill-rule="nonzero"></path></g></svg>

